<?xml version="1.0" encoding="UTF-8" standalone="no"?>
<!-- Created with Inkscape (http://www.inkscape.org/) -->

<svg
   width="128"
   height="128"
   viewBox="0 0 33.866666 33.866668"
   version="1.1"
   id="svg5"
   sodipodi:docname="logo.svg"
   inkscape:version="1.1.1 (3bf5ae0d25, 2021-09-20)"
   inkscape:export-filename="C:\dev\simulationframework\assets\logo-512x512.png"
   inkscape:export-xdpi="96"
   inkscape:export-ydpi="96"
   xmlns:inkscape="http://www.inkscape.org/namespaces/inkscape"
   xmlns:sodipodi="http://sodipodi.sourceforge.net/DTD/sodipodi-0.dtd"
   xmlns="http://www.w3.org/2000/svg"
   xmlns:svg="http://www.w3.org/2000/svg">
  <sodipodi:namedview
     id="namedview7"
     pagecolor="#ffffff"
     bordercolor="#666666"
     borderopacity="1.0"
     inkscape:pageshadow="2"
     inkscape:pageopacity="0.0"
     inkscape:pagecheckerboard="0"
     inkscape:document-units="mm"
     showgrid="true"
     inkscape:zoom="4"
     inkscape:cx="46.875"
     inkscape:cy="64.375"
     inkscape:window-width="2560"
     inkscape:window-height="1377"
     inkscape:window-x="2552"
     inkscape:window-y="-8"
     inkscape:window-maximized="1"
     inkscape:current-layer="layer1"
     units="px"
     inkscape:snap-grids="true"
     inkscape:snap-page="true"
     showguides="true"
     inkscape:guide-bbox="true">
    <inkscape:grid
       type="xygrid"
       id="grid1461"
       dotted="false"
       empspacing="8" />
  </sodipodi:namedview>
  <defs
     id="defs2" />
  <g
     inkscape:label="Layer 1"
     inkscape:groupmode="layer"
     id="layer1">
    <path
       style="fill:#0571ff;fill-opacity:1;stroke:#0571ff;stroke-width:1;stroke-linecap:square;stroke-linejoin:miter;stroke-miterlimit:150;stroke-dasharray:none;stroke-opacity:1;paint-order:fill markers stroke"
       d="m 89.095454,64.002831 c 0.04275,19.611078 -0.09415,39.223739 0.11952,58.833749 0.115032,0.43573 -0.214973,2.16342 0.227819,1.59142 12.156967,-9.59791 24.269117,-19.25252 36.402537,-28.880196 -0.0227,-21.034817 -0.0456,-42.069631 -0.0687,-63.104447 C 113.54553,22.745845 101.37594,12.968392 89.095464,3.3345885 V 64.002831 Z"
       id="path39394"
       transform="scale(0.26458333)"
       sodipodi:nodetypes="sccccccs" />
    <path
       style="fill:none;stroke:#000000;stroke-width:0.529167;stroke-linecap:square;stroke-linejoin:round;stroke-miterlimit:4;stroke-dasharray:none;stroke-opacity:1"
       d="m 23.283333,0.26458333 0,33.33749967 L 33.602083,25.4 V 8.4666667 Z"
       id="path1465"
       sodipodi:nodetypes="ccccc" />
    <path
       style="fill:#000000;stroke:#000000;stroke-width:0.529167;stroke-linecap:round;stroke-linejoin:round;stroke-miterlimit:4;stroke-dasharray:none;stroke-opacity:1;fill-opacity:0"
       d="M 23.283333,0.26458333 19.05,8.4666666 V 25.4 l 4.233333,8.202083"
       id="path1467"
       sodipodi:nodetypes="cccc" />
    <path
       style="fill:#1f52b7;fill-opacity:1;stroke:#1f52b7;stroke-width:0.25;stroke-linecap:butt;stroke-linejoin:miter;stroke-miterlimit:4.4;stroke-dasharray:none;stroke-opacity:1;paint-order:fill markers stroke"
       d="M 79.96875,18.904052 C 77.645833,23.404379 75.322916,27.904704 73,32.405029 c 0,21.063313 0,42.126628 0,63.189942 4.645885,9.000709 9.291718,18.001439 13.9375,27.002199 0.05689,-39.064761 0.0569,-78.129579 0,-117.194338 -2.322917,4.5004068 -4.645834,9.000814 -6.96875,13.50122 z"
       id="path34450"
       transform="scale(0.26458333)" />
    <path
       style="fill:#0571ff;fill-opacity:1;stroke:#0571ff;stroke-width:0.264583;stroke-linecap:square;stroke-linejoin:miter;stroke-miterlimit:150;stroke-dasharray:none;stroke-opacity:1;paint-order:fill markers stroke"
       d="m 10.293494,16.934082 c -0.01131,5.188765 0.02491,10.377948 -0.03162,15.56643 -0.03044,0.115287 0.05688,0.572405 -0.06028,0.421063 -3.2165301,-2.539447 -6.4212032,-5.093896 -9.63150418,-7.641219 0.006,-5.565461 0.01206,-11.130923 0.01818,-16.6963846 C 3.8244118,6.0181714 7.0442829,3.4312203 10.293491,0.88227653 V 16.934082 Z"
       id="path39938"
       sodipodi:nodetypes="sccccccs" />
    <path
       style="fill:none;stroke:#000000;stroke-width:0.529167;stroke-linecap:square;stroke-linejoin:round;stroke-miterlimit:4;stroke-dasharray:none;stroke-opacity:1"
       d="M 10.583333,0.26458333 V 33.602083 L 0.26458382,25.4 V 8.4666667 Z"
       id="path39940"
       sodipodi:nodetypes="ccccc" />
    <path
       style="fill:#000000;fill-opacity:0;stroke:#000000;stroke-width:0.529167;stroke-linecap:round;stroke-linejoin:round;stroke-miterlimit:4;stroke-dasharray:none;stroke-opacity:1"
       d="M 10.583333,0.26458333 14.816666,8.4666666 V 25.4 l -4.233333,8.202083"
       id="path39942"
       sodipodi:nodetypes="cccc" />
    <path
       style="fill:#1f52b7;fill-opacity:1;stroke:#1f52b7;stroke-width:0.0661458;stroke-linecap:butt;stroke-linejoin:miter;stroke-miterlimit:4.4;stroke-dasharray:none;stroke-opacity:1;paint-order:fill markers stroke"
       d="m 12.708268,5.001697 c 0.614605,1.1907115 1.22921,2.3814225 1.843815,3.5721335 0,5.5730015 0,11.1460035 0,16.7190055 -1.229224,2.381438 -2.458434,4.762881 -3.68763,7.144332 -0.01505,-10.335885 -0.01506,-20.671784 0,-31.0076687 0.614605,1.1907326 1.22921,2.3814653 1.843815,3.5721977 z"
       id="path39944" />
  </g>
</svg>
